<?xml version="1.0" encoding="UTF-8" standalone="no"?>
<!DOCTYPE svg PUBLIC "-//W3C//DTD SVG 1.0//EN"
	"http://www.w3.org/TR/2001/REC-SVG-20010904/DTD/svg10.dtd">
<!-- Created with Inkscape (http://www.inkscape.org/) -->
<svg
   xmlns:svg="http://www.w3.org/2000/svg"
   xmlns="http://www.w3.org/2000/svg"
   xmlns:inkscape="http://www.inkscape.org/namespaces/inkscape"
   version="1.0"
   width="589.42859"
   height="109.571"
   id="svg2">
  <defs
     id="defs4">
    <filter
       id="filter3316">
      <feGaussianBlur
         id="feGaussianBlur3318"
         stdDeviation="0.58671616" />
    </filter>
  </defs>
  <g
     transform="translate(-4.3571402,-19.576684)"
     id="layer1">
    <g
       id="g3500">
      <g
         transform="translate(-104,-197.92881)"
         id="g3356">
        <path
           d="M 211.42857,266.64789 A 54.285713,51.42857 0 1 1 102.85714,266.64789 A 54.285713,51.42857 0 1 1 211.42857,266.64789 z"
           transform="matrix(0.99975,0,0,1.0552875,6.0392866,-9.0991896)"
           id="path2383"
           style="fill:#000000;fill-opacity:1;fill-rule:evenodd;stroke:#000000;stroke-width:1;stroke-miterlimit:4;stroke-dasharray:none;stroke-dashoffset:0;stroke-opacity:1;filter:url(#filter3316)" />
        <rect
           width="17.211435"
           height="56.782867"
           ry="0"
           x="170.53714"
           y="243.89957"
           id="rect3237"
           style="fill:#e6e6e6;fill-opacity:1;fill-rule:evenodd;stroke:#ffffff;stroke-width:0.93142033;stroke-miterlimit:4;stroke-dasharray:none;stroke-dashoffset:0;stroke-opacity:1" />
        <rect
           width="17.211439"
           height="56.782581"
           ry="0"
           x="138.53714"
           y="243.89986"
           id="rect3239"
           style="fill:#e6e6e6;fill-opacity:1;fill-rule:evenodd;stroke:#ffffff;stroke-width:0.93141806;stroke-miterlimit:4;stroke-dasharray:none;stroke-dashoffset:0;stroke-opacity:1" />
        <path
           d="M 162.65625,219.15629 C 133.52603,219.1563 109.875,243.47944 109.875,273.43754 C 156.77381,262.83269 168.19577,262.69279 215.40625,273.43754 C 215.40626,243.47944 191.78648,219.15629 162.65625,219.15629 z"
           id="path3245"
           style="opacity:0.5;fill:#ffffff;fill-opacity:1;fill-rule:evenodd;stroke:#000000;stroke-width:1;stroke-miterlimit:4;stroke-dashoffset:0;stroke-opacity:0.18257261" />
      </g>
      <g
         transform="translate(-104.85714,-198)"
         id="g3336">
        <path
           d="M 211.42857,266.64789 A 54.285713,51.42857 0 1 1 102.85714,266.64789 A 54.285713,51.42857 0 1 1 211.42857,266.64789 z"
           transform="matrix(0.99975,0,0,1.0552875,126.89643,-9.028)"
           id="path3320"
           style="opacity:1;fill:#000000;fill-opacity:1;fill-rule:evenodd;stroke:#000000;stroke-width:1;stroke-miterlimit:4;stroke-dasharray:none;stroke-dashoffset:0;stroke-opacity:1;filter:url(#filter3316)" />
        <rect
           width="58.26408"
           height="58.264084"
           ry="0"
           x="254.86795"
           y="243.23015"
           id="rect3324"
           style="opacity:1;fill:#e6e6e6;fill-opacity:1;fill-rule:evenodd;stroke:#ffffff;stroke-width:1.73591864;stroke-miterlimit:4;stroke-dasharray:none;stroke-dashoffset:0;stroke-opacity:1" />
        <path
           d="M 283.5134,219.22748 C 254.38318,219.22749 230.73215,243.55063 230.73215,273.50873 C 277.63096,262.90388 289.05292,262.76398 336.2634,273.50873 C 336.26341,243.55063 312.64363,219.22748 283.5134,219.22748 z"
           id="path3326"
           style="opacity:0.5;fill:#ffffff;fill-opacity:1;fill-rule:evenodd;stroke:#000000;stroke-width:1;stroke-miterlimit:4;stroke-dashoffset:0;stroke-opacity:0.18257261" />
      </g>
      <g
         transform="translate(-105,-200)"
         id="g3368">
        <path
           d="M 211.42857,266.64789 A 54.285713,51.42857 0 1 1 102.85714,266.64789 A 54.285713,51.42857 0 1 1 211.42857,266.64789 z"
           transform="matrix(0.99975,0,0,1.0552875,247.89643,-7.028001)"
           id="path3343"
           style="fill:#000000;fill-opacity:1;fill-rule:evenodd;stroke:#000000;stroke-width:1;stroke-miterlimit:4;stroke-dasharray:none;stroke-dashoffset:0;stroke-opacity:1;filter:url(#filter3316)" />
        <path
           d="M 233,452.36218 L 188.95096,474.79391 L 144.90192,497.22563 L 147.5,447.86218 L 150.09808,398.49874 L 191.54904,425.43046 L 233,452.36218 z"
           transform="matrix(0.7021861,-3.3524348e-2,3.461831e-2,0.6799967,263.8847,-25.237783)"
           id="path3366"
           style="opacity:1;fill:#e6e6e6;fill-opacity:1;fill-rule:evenodd;stroke:#ffffff;stroke-width:1;stroke-miterlimit:4;stroke-dasharray:none;stroke-dashoffset:0;stroke-opacity:0.18257261" />
        <path
           d="M 404.5134,221.22748 C 375.38318,221.22749 351.73215,245.55063 351.73215,275.50873 C 398.63096,264.90388 410.05292,264.76398 457.2634,275.50873 C 457.26341,245.55063 433.64363,221.22748 404.5134,221.22748 z"
           id="path3347"
           style="opacity:0.5;fill:#ffffff;fill-opacity:1;fill-rule:evenodd;stroke:#000000;stroke-width:1;stroke-miterlimit:4;stroke-dashoffset:0;stroke-opacity:0.18257261" />
      </g>
      <g
         transform="translate(-4,2.7855018)"
         id="g3486">
        <path
           d="M 211.42857,266.64789 A 54.285713,51.42857 0 1 1 102.85714,266.64789 A 54.285713,51.42857 0 1 1 211.42857,266.64789 z"
           transform="matrix(0.99975,0,0,1.0552875,264.89643,-209.8135)"
           id="path3375"
           style="fill:#000000;fill-opacity:1;fill-rule:evenodd;stroke:#000000;stroke-width:1;stroke-miterlimit:4;stroke-dasharray:none;stroke-dashoffset:0;stroke-opacity:1;filter:url(#filter3316)" />
        <g
           transform="matrix(0,1.3125598,-1.3125598,0,830.87109,-749.1447)"
           id="g3398"
           style="fill:#e6e6e6;stroke:#ffffff">
          <path
             d="M 323,453.36218 L 233.25481,490.17659 L 143.50962,526.991 L 156.5,430.86218 L 169.49038,334.73336 L 246.24519,394.04777 L 323,453.36218 z"
             transform="matrix(-2.8218236e-2,-0.2014787,0.2014787,-2.8218236e-2,543.17269,382.3361)"
             id="path3388"
             style="fill:#e6e6e6;fill-opacity:1;fill-rule:evenodd;stroke:#ffffff;stroke-width:1;stroke-miterlimit:4;stroke-dasharray:none;stroke-dashoffset:0;stroke-opacity:0.18257261" />
          <path
             d="M 323,453.36218 L 233.25481,490.17659 L 143.50962,526.991 L 156.5,430.86218 L 169.49038,334.73336 L 246.24519,394.04777 L 323,453.36218 z"
             transform="matrix(-2.8218236e-2,-0.2014787,0.2014787,-2.8218236e-2,542.6066,359.09468)"
             id="path3390"
             style="fill:#e6e6e6;fill-opacity:1;fill-rule:evenodd;stroke:#ffffff;stroke-width:1;stroke-miterlimit:4;stroke-dasharray:none;stroke-dashoffset:0;stroke-opacity:0.18257261" />
        </g>
        <path
           d="M 421.5134,18.44198 C 392.38318,18.44199 368.73215,42.76513 368.73215,72.72323 C 415.63096,62.11838 427.05292,61.97848 474.2634,72.72323 C 474.26341,42.76513 450.64363,18.44198 421.5134,18.44198 z"
           id="path3379"
           style="opacity:0.5;fill:#ffffff;fill-opacity:1;fill-rule:evenodd;stroke:#000000;stroke-width:1;stroke-miterlimit:4;stroke-dashoffset:0;stroke-opacity:0.18257261" />
      </g>
      <g
         transform="translate(-6,0)"
         id="g3493">
        <path
           d="M 211.42857,266.64789 A 54.285713,51.42857 0 1 1 102.85714,266.64789 A 54.285713,51.42857 0 1 1 211.42857,266.64789 z"
           transform="matrix(0.99975,0,0,1.0552875,387.89643,-207.028)"
           id="path3402"
           style="fill:#000000;fill-opacity:1;fill-rule:evenodd;stroke:#000000;stroke-width:1;stroke-miterlimit:4;stroke-dasharray:none;stroke-dashoffset:0;stroke-opacity:1;filter:url(#filter3316)" />
        <g
           transform="matrix(0,-1.3125598,1.3125598,0,136.12893,895.0836)"
           id="g3406"
           style="fill:#e6e6e6;stroke:#ffffff">
          <path
             d="M 323,453.36218 L 233.25481,490.17659 L 143.50962,526.991 L 156.5,430.86218 L 169.49038,334.73336 L 246.24519,394.04777 L 323,453.36218 z"
             transform="matrix(-2.8218236e-2,-0.2014787,0.2014787,-2.8218236e-2,543.17269,382.3361)"
             id="path3408"
             style="fill:#e6e6e6;fill-opacity:1;fill-rule:evenodd;stroke:#ffffff;stroke-width:1;stroke-miterlimit:4;stroke-dasharray:none;stroke-dashoffset:0;stroke-opacity:0.18257261" />
          <path
             d="M 323,453.36218 L 233.25481,490.17659 L 143.50962,526.991 L 156.5,430.86218 L 169.49038,334.73336 L 246.24519,394.04777 L 323,453.36218 z"
             transform="matrix(-2.8218236e-2,-0.2014787,0.2014787,-2.8218236e-2,542.6066,359.09468)"
             id="path3410"
             style="fill:#e6e6e6;fill-opacity:1;fill-rule:evenodd;stroke:#ffffff;stroke-width:1;stroke-miterlimit:4;stroke-dasharray:none;stroke-dashoffset:0;stroke-opacity:0.18257261" />
        </g>
        <path
           d="M 544.5134,21.22748 C 515.38318,21.22749 491.73215,45.55063 491.73215,75.50873 C 538.63096,64.90388 550.05292,64.76398 597.2634,75.50873 C 597.26341,45.55063 573.64363,21.22748 544.5134,21.22748 z"
           id="path3404"
           style="opacity:0.5;fill:#ffffff;fill-opacity:1;fill-rule:evenodd;stroke:#000000;stroke-width:1;stroke-miterlimit:4;stroke-dashoffset:0;stroke-opacity:0.18257261" />
      </g>
    </g>
  </g>
</svg>
